{"title":"Hobo.with.a.Shotgun.2011.BRRip.480p.XviD.Ac3.Feel-Free","uid":6499599,"size":1263526237,"categoryP":"video","categoryS":"movies","magnet":"?xt=urn:btih:213a8bf7c2a2bb26c27f6290ae2f0a39f1e5c75a&amp;dn=Hobo.with.a.Shotgun.2011.BRRip.480p.XviD.Ac3.Feel-Free&amp;tr=udp%3A%2F%2Ftracker.openbittorrent.com%3A80&amp;tr=udp%3A%2F%2Fopen.demonii.com%3A1337&amp;tr=udp%3A%2F%2Ftracker.coppersurfer.tk%3A6969&amp;tr=udp%3A%2F%2Fexodus.desync.com%3A6969","seeders":0,"leechers":1,"uploader":".BONE.","files":10,"time":1309200489,"description":"Genre:Action | Crime | Thriller\nLanguage:English\n &lt;a href=&quot;\nhttp://www.imdb.com/title/tt1640459/&quot; rel=&quot;nofollow&quot; target=&quot;_NEW&quot;&gt;\nhttp://www.imdb.com/title/tt1640459/&lt;/a&gt;\n\nSource:LIMITED.720p.BluRay.x264-AMIABLE Thanks!\nSubtitles:Romana\n\nFormat : AVI\nFormat/Info : Audio Video Interleave\nFile size : 1.17 GiB\nDuration : 1h 26mn\nOverall bit rate : 1 955 Kbps\n\nVideo\nID : 0\nFormat : MPEG-4 Visual\nFormat profile : Advanced Simple@L5\nFormat settings, BVOP : Yes\nFormat settings, QPel : No\nFormat settings, GMC : No warppoints\nFormat settings, Matrix : Default (H.263)\nCodec ID : XVID\nCodec ID/Hint : XviD\nDuration : 1h 26mn\nBit rate : 1 498 Kbps\nWidth : 720 pixels\nHeight : 304 pixels\nDisplay aspect ratio : 2.35:1\nFrame rate : 23.976 fps\nColor space : YUV\nChroma subsampling : 4:2:0\nBit depth : 8 bits\nScan type : Progressive\nBits/(Pixel*Frame) : 0.285\nStream size : 921 MiB (77%)\nWriting library : XviD 1.2.1 (UTC 2008-12-04)\n\nAudio\nID : 1\nFormat : AC-3\nFormat/Info : Audio Coding 3\nMode extension : CM (complete main)\nCodec ID : 2000\nDuration : 1h 26mn\nBit rate mode : Constant\nBit rate : 448 Kbps\nChannel(s) : 6 channels\nChannel positions : Front: L C R, Side: L R, LFE\nSampling rate : 48.0 KHz\nBit depth : 16 bits\nStream size : 276 MiB (23%)\nAlignment : Aligned on interleaves\nInterleave, duration : 42 ms (1.00 video frame)\nInterleave, preload duration : 512 ms\n\n\nPlot:\nA homeless vigilante blows away crooked cops, pedophile Santas, and other scumbags with his trusty pump-action shotgun.\n &lt;a href=&quot;\nhttp://leetleech.org/images/31765793714731934062.png&quot; rel=&quot;nofollow&quot; target=&quot;_NEW&quot;&gt;\nhttp://leetleech.org/images/31765793714731934062.png&lt;/a&gt;\n &lt;a href=&quot;\nhttp://leetleech.org/images/22417468890030729441.png&quot; rel=&quot;nofollow&quot; target=&quot;_NEW&quot;&gt;\nhttp://leetleech.org/images/22417468890030729441.png&lt;/a&gt;\n &lt;a href=&quot;\nhttp://leetleech.org/images/72307691562641841370.png&quot; rel=&quot;nofollow&quot; target=&quot;_NEW&quot;&gt;\nhttp://leetleech.org/images/72307691562641841370.png&lt;/a&gt;\n &lt;a href=&quot;\nhttp://leetleech.org/images/32432587352968345240.png&quot; rel=&quot;nofollow&quot; target=&quot;_NEW&quot;&gt;\nhttp://leetleech.org/images/32432587352968345240.png&lt;/a&gt;\n &lt;a href=&quot;\nhttp://leetleech.org/images/61843178580628489204.png&quot; rel=&quot;nofollow&quot; target=&quot;_NEW&quot;&gt;\nhttp://leetleech.org/images/61843178580628489204.png&lt;/a&gt;","torrent":{"xt":"urn:btih:213a8bf7c2a2bb26c27f6290ae2f0a39f1e5c75a","amp;dn":"Hobo.with.a.Shotgun.2011.BRRip.480p.XviD.Ac3.Feel-Free","amp;tr":["udp%3A%2F%2Ftracker.openbittorrent.com%3A80","udp%3A%2F%2Fopen.demonii.com%3A1337","udp%3A%2F%2Ftracker.coppersurfer.tk%3A6969","udp%3A%2F%2Fexodus.desync.com%3A6969"],"infoHash":"213a8bf7c2a2bb26c27f6290ae2f0a39f1e5c75a","infoHashBuffer":{"type":"Buffer","data":[33,58,139,247,194,162,187,38,194,127,98,144,174,47,10,57,241,229,199,90]},"announce":[],"urlList":[]}}